<mxfile host="app.diagrams.net" agent="Mozilla/5.0 (Macintosh; Intel Mac OS X 10_15_7) AppleWebKit/537.36 (KHTML, like Gecko) Chrome/131.0.0.0 Safari/537.36 Edg/131.0.0.0" version="25.0.3">
  <diagram name="PÃ¡gina-1" id="sKnrMxm5v_qYowO8_4S5">
    <mxGraphModel dx="1018" dy="687" grid="1" gridSize="10" guides="1" tooltips="1" connect="1" arrows="1" fold="1" page="1" pageScale="1" pageWidth="850" pageHeight="1100" math="0" shadow="0">
      <root>
        <mxCell id="0" />
        <mxCell id="1" parent="0" />
        <mxCell id="yTeYaSASekbW8hYLHKoI-1" value="&lt;div&gt;&lt;font style=&quot;font-size: 15px;&quot; face=&quot;Courier New&quot;&gt;&lt;b style=&quot;&quot;&gt;web-api&lt;/b&gt;&lt;/font&gt;&lt;/div&gt;&lt;div&gt;&lt;br&gt;&lt;/div&gt;Custom FastAPI" style="rounded=1;whiteSpace=wrap;html=1;fillColor=#d5e8d4;strokeColor=#82b366;" parent="1" vertex="1">
          <mxGeometry x="360" y="190" width="120" height="70" as="geometry" />
        </mxCell>
        <mxCell id="wGOp5PBhXYcLamSUFxW2-6" style="edgeStyle=orthogonalEdgeStyle;rounded=0;orthogonalLoop=1;jettySize=auto;html=1;" edge="1" parent="1" source="wGOp5PBhXYcLamSUFxW2-1" target="yTeYaSASekbW8hYLHKoI-1">
          <mxGeometry relative="1" as="geometry" />
        </mxCell>
        <mxCell id="wGOp5PBhXYcLamSUFxW2-1" value="&lt;div&gt;&lt;font face=&quot;Courier New&quot; style=&quot;font-size: 15px;&quot;&gt;&lt;b&gt;mysql&lt;/b&gt;&lt;/font&gt;&lt;/div&gt;&lt;div&gt;&lt;br&gt;&lt;/div&gt;MySQL" style="rounded=1;whiteSpace=wrap;html=1;fillColor=#d5e8d4;strokeColor=#82b366;" vertex="1" parent="1">
          <mxGeometry x="200" y="50" width="120" height="70" as="geometry" />
        </mxCell>
        <mxCell id="wGOp5PBhXYcLamSUFxW2-7" style="edgeStyle=orthogonalEdgeStyle;rounded=0;orthogonalLoop=1;jettySize=auto;html=1;exitX=0.5;exitY=0;exitDx=0;exitDy=0;entryX=0;entryY=0.5;entryDx=0;entryDy=0;" edge="1" parent="1" source="wGOp5PBhXYcLamSUFxW2-5" target="wGOp5PBhXYcLamSUFxW2-1">
          <mxGeometry relative="1" as="geometry" />
        </mxCell>
        <mxCell id="wGOp5PBhXYcLamSUFxW2-5" value="&lt;div&gt;&lt;font face=&quot;Courier New&quot; style=&quot;font-size: 15px;&quot;&gt;&lt;b&gt;setup-db&lt;/b&gt;&lt;/font&gt;&lt;/div&gt;&lt;div&gt;&lt;br&gt;&lt;/div&gt;Custom" style="rounded=1;whiteSpace=wrap;html=1;dashed=1;dashPattern=8 8;fillColor=#dae8fc;strokeColor=#6c8ebf;" vertex="1" parent="1">
          <mxGeometry x="40" y="190" width="120" height="70" as="geometry" />
        </mxCell>
      </root>
    </mxGraphModel>
  </diagram>
</mxfile>
